<mxfile host="app.diagrams.net" modified="2023-12-28T15:29:08.950Z" agent="Mozilla/5.0 (Macintosh; Intel Mac OS X 10_15_7) AppleWebKit/537.36 (KHTML, like Gecko) Chrome/109.0.0.0 Safari/537.36" etag="bAeQdBu114rfKFepQo7K" version="22.1.15" type="github">
  <diagram name="第 1 页" id="DxU8zel3XMQseQ0JCd1j">
    <mxGraphModel dx="1383" dy="736" grid="1" gridSize="10" guides="1" tooltips="1" connect="1" arrows="1" fold="1" page="1" pageScale="1" pageWidth="827" pageHeight="1169" math="0" shadow="0">
      <root>
        <mxCell id="0" />
        <mxCell id="1" parent="0" />
        <mxCell id="wyVvy1AHNclSI-G4XtT5-1" value="" style="rounded=0;whiteSpace=wrap;html=1;fillColor=#e51400;fontColor=#ffffff;strokeColor=#B20000;" vertex="1" parent="1">
          <mxGeometry x="110" y="90" width="570" height="317" as="geometry" />
        </mxCell>
        <mxCell id="wyVvy1AHNclSI-G4XtT5-2" value="" style="shape=image;verticalLabelPosition=bottom;labelBackgroundColor=default;verticalAlign=top;aspect=fixed;imageAspect=0;image=data:image/png,iVBORw0KGgoAAAANSUhEUgAAAPoAAAD6CAYAAACI7Fo9AAAAAXNSR0IArs4c6QAAAIRlWElmTU0AKgAAAAgABQESAAMAAAABAAEAAAEaAAUAAAABAAAASgEbAAUAAAABAAAAUgEoAAMAAAABAAIAAIdpAAQAAAABAAAAWgAAAAAAAACQAAAAAQAAAJAAAAABAAOgAQADAAAAAQABAACgAgAEAAAAAQAAAPqgAwAEAAAAAQAAAPoAAAAAv0wMpgAAAAlwSFlzAAAWJQAAFiUBSVIk8AAACclJREFUeAHt3b2rZWcVB+BEBhL8gBhQENQiWkgQFYyREGIQFLFTTK3+CWrQxloIFsE/Qay0EKyVYDBISNRCbdUmfoAfIWjUoEVcC5PNsGbfYs65+7L37z4bXuas987Z513Pur/MmZMZ5o47XAQIECBAgAABAgQIECBAgAABAgQIECBAgAABAgQIECBAgAABAgQIECBAgAABAgQIECBAgAABAgQIECBAgAABAgQIECBAgAABAgQIECBAgAABAgQIECBAgAABAgQIECBAgAABAgQIECBAgAABAgQIECBAgAABAgQIECBAgAABAgQIECBAgAABAgQIECBAgAABAgQIECBAgAABAgQIECBAgMCuBO684tPcXa/3yVofq/XOWl1f9RnqJV0ErlTg1Xq1V2r9vtZPav3otbp+yLreWu18s9bLtbppi8F1/h7oHHQeOhdXcl3Fr6aPVCffr/W2K+nIixA4jsBf6qifq/XM1kd+w8Yv8Jm6/1O1hHxjaLc/pEDnovPROdn02vJX9A/WyX9a602bduDmBI4v8M9q4eFav9yqla2C3vd9vtYDFxy8v/ZsrZcu+LptAmkC91RDD9V68ILGfv7a1/qzi8Ncj9VJ1z5seaH2+xN3F4HrKtDf/52DtXx0bg51/aBOOxt5sfbuO1QXDktgG4HOQedhZqRzc5jrrjrpv2rNJr5ymA4clMD2Ao/XS8yMdG46P4e47q9Tzga6fschTu+QBK5GoPOwlpPOz6VfW/zvtXtXTvnv2vvTyr4tAtdVoPPQuZjXWn7mz7nteoug31g5xX9W9mwRuO4Ca7lYy8/ZTlsE/exDuQEBApcrsMl/PU444ofrOd844XmeQmDPAl+vw/1iDwfcS9D7jwJ+ag8gzkDgEgW+dYn3OutW3rqfxefJBI4hIOjHmJNTEjhLQNDP4vNkAscQ2Mvv0de0+i/n+4BuTcbeHgX6g7c37/FgfaY9B73/6t4Te4VzLgJD4EtV7zbo3rqPaSkJJAoIeuJU9URgCAj6AFESSBQQ9MSp6onAEBD0AaIkkCgg6IlT1ROBISDoA0RJIFFA0BOnqicCQ0DQB4iSQKKAoCdOVU8EhoCgDxAlgUQBQU+cqp4IDAFBHyBKAokCgp44VT0RGAKCPkCUBBIFBD1xqnoiMAQEfYAoCSQKCHriVPVEYAgI+gBREkgUEPTEqeqJwBAQ9AGiJJAoIOiJU9UTgSEg6ANESSBRQNATp6onAkNA0AeIkkCigKAnTlVPBIaAoA8QJYFEAUFPnKqeCAwBQR8gSgKJAoKeOFU9ERgCgj5AlAQSBQQ9cap6IjAEBH2AKAkkCgh64lT1RGAICPoAURJIFBD0xKnqicAQEPQBoiSQKCDoiVPVE4EhIOgDREkgUUDQE6eqJwJDQNAHiJJAooCgJ05VTwSGgKAPECWBRAFBT5yqnggMAUEfIEoCiQKCnjhVPREYAoI+QJQEEgUEPXGqeiIwBAR9gCgJJAoIeuJU9URgCAj6AFESSBQQ9MSp6onAEBD0AaIkkCgg6IlT1ROBISDoA0RJIFFA0BOnqicCQ0DQB4iSQKKAoCdOVU8EhoCgDxAlgUQBQU+cqp4IDAFBHyBKAokCgp44VT0RGAKCPkCUBBIFBD1xqnoiMAQEfYAoCSQKCHriVPVEYAgI+gBREkgUEPTEqeqJwBAQ9AGiJJAoIOiJU9UTgSEg6ANESSBRQNATp6onAkNA0AeIkkCigKAnTlVPBIaAoA8QJYFEAUFPnKqeCAwBQR8gSgKJAoKeOFU9ERgCgj5AlAQSBQQ9cap6IjAEBH2AKAkkCgh64lT1RGAICPoAURJIFBD0xKnqicAQEPQBoiSQKCDoiVPVE4EhIOgDREkgUUDQE6eqJwJDQNAHiJJAooCgJ05VTwSGgKAPECWBRAFBT5yqnggMAUEfIEoCiQKCnjhVPREYAoI+QJQEEgUEPXGqeiIwBAR9gCgJJAoIeuJU9URgCAj6AFESSBQQ9MSp6onAEBD0AaIkkCgg6IlT1ROBISDoA0RJIFFA0BOnqicCQ0DQB4iSQKKAoCdOVU8EhoCgDxAlgUSBGztu6i11tid3fD5HI3CzQH+/7vbac9DfWGpf3q2cgxE4kIC37gcalqMSOFVA0E+V8zwCBxIQ9AMNy1EJnCqwl9+j/6Ea+M6pTXgegZ0K9Pf1Lq69BP3XpfGFXYg4BIFAAW/dA4eqJQJTYIug/3e+SNV3rezZInDdBdZysZafs522CPrfVk51d+29e2XfFoHrKtB56FzM669z4zLqLYL+2zrYP1YO9/mVPVsErqvAWh46N787Esj36rCvjtVNvP9ITTgrgY0EOgedh5mRzs2hrk/XaWcTXffbks8eqhOHJXC5Av393zlYy0fnZpPrzk3u+v+bPl0/PHrB/fvt/bO1Xrrg67YJpAncUw09VOs9FzT2dO1//IKvnb29ZdDfW6d7rta9Z5/SDQhkC7xY7X201m+2anOLD+NeP2sf+rFaL7++4UcCBG4R6Hx0TjYLeb/ilkHv+/+41sO1DvVJYh/cReAKBDoXnY/OyabX1kHvw/+q1v21vlrrj7VcBK67QOeg89C56Hxsfm35e/S1w/frPVjrkVrvqrX2BwZq27Ui8Inau2/s9zfJz8beFuVH6qYfGDfuD1SfGnvKiwVeqS+9UOuZWs/X6k/dXQRuEfhu7fQ3x83riVt+1jYb/To3v24/7vO4DiJwFW/dD0LhmARyBQQ9d7Y6I7AICPpC4QGBXAFBz52tzggsAoK+UHhAIFdA0HNnqzMCi4CgLxQeEMgVEPTc2eqMwCIg6AuFBwRyBQQ9d7Y6I7AICPpC4QGBXAFBz52tzggsAoK+UHhAIFdA0HNnqzMCi4CgLxQeEMgVEPTc2eqMwCIg6AuFBwRyBQQ9d7Y6I7AICPpC4QGBXAFBz52tzggsAoK+UHhAIFdA0HNnqzMCi4CgLxQeEMgVEPTc2eqMwCJwY3nkwe0IvL1+8hdv5wmX8HPft3KP/ldvHl/Zv+ytfp159Xm+Njc3rr9d9//zxq/h9gQWgQ/Vo/kvl6i3N2l31wkC3rqfgOYpBI4mIOhHm5jzEjhBQNBPQPMUAkcT8GHcaRP7ez3th6c91bPOEGh3FwECBAgQIECAAAECBAgQIECAAAECBAgQIECAAAECBAgQIECAAAECBAgQIECAAAECBAgQIECAAAECBAgQIECAAAECBAgQIECAAAECBAgQIECAAAECBAgQIECAAAECBAgQIECAAAECBAgQIECAAAECBAgQIECAAAECBAgQIECAAAECBAgQIECAAAECBAgQIECAAAECBAgQIECAAAECBOIF/ge3GcSPt9C7TAAAAABJRU5ErkJggg==;imageBorder=none;" vertex="1" parent="1">
          <mxGeometry x="438" y="134.5" width="225" height="225" as="geometry" />
        </mxCell>
        <mxCell id="wyVvy1AHNclSI-G4XtT5-3" value="" style="shape=image;verticalLabelPosition=bottom;labelBackgroundColor=default;verticalAlign=top;aspect=fixed;imageAspect=0;image=data:image/png,iVBORw0KGgoAAAANSUhEUgAAAUgAAAFICAYAAAAyFGczAAAAAXNSR0IArs4c6QAAAIRlWElmTU0AKgAAAAgABQESAAMAAAABAAEAAAEaAAUAAAABAAAASgEbAAUAAAABAAAAUgEoAAMAAAABAAIAAIdpAAQAAAABAAAAWgAAAAAAAACQAAAAAQAAAJAAAAABAAOgAQADAAAAAQABAACgAgAEAAAAAQAAAUigAwAEAAAAAQAAAUgAAAAApgfCPgAAAAlwSFlzAAAWJQAAFiUBSVIk8AAAJgtJREFUeAHtnQmcZFV97++5t3p2Zh/hMdO1dPcsMECAQdAXVMQP+p5CHigxA64fnvpck1EJWZ4xKklIYiJuwcQnbgFkHhJcouG5xFE/RlFHYQCZma69mzFs4zDMMNNdde95/9uz0FN9b3dVU3W6z63vxbGrzvo/33/Vr852z3UcLghAAAIQgAAEIAABCEAAAhCAAAQgAAEIQAACEIAABCAAAQhAAAIQgAAEIAABCEAAAhCAAAQgAAEIQAACEIAABCAAAQhAAAIQgAAEIAABCEAAAhCAAAQgAAEIQAACEIAABCAAAQhAAAIQgAAEIAABCEAAAhCAAAQgAAEIQAACEIAABCAAAQhAAAIQSAoBlZSGdKodG1etWnR4wYKzHO1uVI6/JlDeItfRS6U+2HUKOuW2jYDWjtJaH3Q9dUAFzl7lOrvrrvtgsVgcbFslCS6IL3mDczdt2tTz1COPPMf3eq5Wjn6T67rr5AM2lurY34YsvIWANQSUUmO/7L4jyhk4W31P/YPneffl8/n91jTCoKEI5DjY/enc6+Xz84eOo9fJB2kOgjgODi8TSSAUTPmcPxpo/VN3Ts81IpSPJbKh02wUAilD5b50+mJXubfIh+UURHGanySyWU/giFgGN3lB8Je7hob2WN+gNjSgqwXyA47j3prN/URE8Txh2dUs2vBZoojkEDiotXp3oVr6P8lp0vRa0rWikEvnLvGUvksALDwywzg9gOSCQBIJyNy7EwT6lsN+7S3Dw8OHktjGZtrkNpMoaWnWZTJvT7nOt6RdiGPSnEt72kIgCAIpR792vpf6VVsKtLSQrutBDqSzfyyD6Rua8Vf4K+oHwdMyj/0d+bxsl9/UonbdA64KDqpwGZALAhYQ0ErN9R1nnvSGTgkc9zTZ93OR57kbw/n2Jufcq6M6OLtarf7Ggua21cRUW0ub5YX1ZzLvlInoG5r4UPgyvigHgXpPYaj8tVneLMyDQMsE1q9ceVIwf+GNylWb5Zd+4RQFpOc46n5J0yv/uqpj0DU9yHW53G/JnMovxcGxbQ5X8QJH3y+/sG/MVyq/mOJDQzQErCew7tR1K4PU6GtlA/mNR7f7TtambflK+cWTJUhaXKxYJKmh6XR62RzH3RsvjaKaWtW1Cj4uwvjeJLWdtkCgGQLr1q1b7Y+Mflf6COvj+ohhB8IP/C3FavVjzZSZhDRdsUgzR3mfnkQcZYpGOTKv+DLEMQkfadowHQK7d+9+eN6ihXJLrbo1Ln84NSX7hT+6Npu9IC5N0sIT34PMijN7HBXudYzz3SGtgxcUqtXtcQkI7zgBlcvk/qfc4/4S+UAulaWDH/UodcvOcrnc8ZqpYAKB/kz2Llepy+O+M3KT4o8KldKFEzImMCDxAimr1vuk97gkyndhz1F+MS8drBS/ERVPmBkCA5lMIbyhqaG2w3N0cN6vqtUHG8J5a4DAQDr3LZl3uiSqqvB7Iz9iF+XL5e9HxScpLNFD7LWZzCsmF8fg/YjjzH6cRRy/7LpeKI5fGQlGnrtv74FwDuzPZXV13qjyvifh3sxa2J21+57zOmn5aFTrw56l/O/2qLikhSVaIGXP19viHCYr2vcPVip/FRdPeOcJbFyzZrnU8iLZa1qR1dFXVat7hh/b/9iCfLX8IRUEn3GVs2pdNntZ5y2hhkYCpVLpkbrvvHRslNUYKe9l7HXy2t7cCyOiEhWUWIEcGBiYK1+wV0R5S+ZXHNnW8GcS50fFE2aGwNM9PSfJV22BfNmKUmN468Zn5d8vpYdysq/UneGsse+rTfKHawYIlIfLP5Btbz+LqVoFSr8yJi4xwYkVSF2rXRvnpUAHJZk/+WpcPOFmCMwdHT0g4nhYasuE53DKXzlqzpEj59QjcljCZWHvxdUq3LvKNTMEdCpQfxfbi1Q6HIYn+kqsQMo81tWRq3DypZOuyrsS7VVLGrfz4YefECH8D/kC9u1/7LHvLl++fFhe/3NfNnuDrGi/XQfBwcHh4r9Y0pxEmrmrWvq/cl92+CM24ZK54+WZTCY3ISJBAYkUyGw2u1S+aKdE+knr/SqVihs2RGYhsHME8tXSZb7WuxzXe8Fzli7btzbXp1OO+8eyCnBQlgJe2LmaKblZAkq5H4lKG3ZAxFevjYpLSlgiBXKu1svEQfNinPTY0qVLu+6m+xgWsyK4WCmfLmd/bAn84Bf1INgjd2t84qmRwydzu+escI+jg/qXoiw5MkILEv0jlsjDKgKllsgQO1IgxanV7du316IcTtiMEQiK5XJ4+1rX3MI2Y6SnUbGIxF6ZlpIe/cRDLWSWeMM0irQmSyJ7kCKC88UDE9p2ZLJZMby25uOJobOBwIjnPS3ieCDaFt0jU1qRnZHo9HaFThARu8yPtlacGT6WNfpS+tHoCEIhAIEoAosPHZIRl4obdblz584NdyAk8kqkQCrtyv666MvT7lPRMYRCAAJRBPb29MgIW8ftGfYOHTqUyKm6kEUiBVKG2LK9LvqK+xmMTk0oBCDQzQQSq/xxTp3qF0H24F0lp4n/iQwpRuLKIBwCSSMg24MPLtD6ivu78LEKk/my6wRyMhhhnAA5RbvemUe2MEyVmngIJIbA/qd7UomdS5yul6bqUE23XPJBAAIQsJ4AAmm9C2kABCDQKQIIZKfIUi4EIGA9AQTSehfSAAhAoFMEWKRpgazrupM8+6uFgkjaEQLB2EnX4SmS8dd0fRhXdnh3Vni+aCtXaKGckDNpFnk4ltNisZOWdyxSDic+9pK/TRBAIJuAdCyJH6iXFCqFfz/2nr+zi8BANvsBUZU/lZOAoldjtd5bc/SL5bTsHa1YvmbNmvlzPe+zcszy5vH5QnGUQzZuHyyVrhofPtXrsLx5nrdDTskZiNotEZYrh3bI41XH7k+fqriW4gcy2WHJsLqlTF2cmCF2C86XxwAsaiE5SQ0TkEOQP9BTr22U/tzeyKqVWu4F+t5sb/amyPiYwDmp1OWeck8QxzBpKG6udjaL6OxbtyZ3fkz2CcHDw8OHDvv+WfI0zVuOnA9wYpKxcpXz0f7edF7ENHwsRTuv1rq77azZwrIQSAudhsnxBB4aHh485NfXyGlOX48SH8mpejz1tv509u6+vr50fEnPxMhJQ1/ydXCxKEsppswlcojlPfK86OueyTX5q1Ak5Ti318nRbu+WlJEH0irX7Z/vedW16fSlk5dGbKcIIJCdIku5M0ZgTHyq5d9ROnhX1Pxg2EOTUezLXD/Y2dfbd14zhhYqle/pntRp8rC3H0alD8uU//1Nfzp9fziEjkoTFVasVj8aeO56iTsYFS+WLtTK/Vp/OvPpqHjCOksAgewsX0qfQQK7K5VPyvOHNsmiSCWm5zc/5emfybPTb2zGzHw+P1Koll8oUnhtTHmyYOOeIfOLQ30t9PqKxWJ1TSUrJ1Cpz8SUK51J981r09mfysPo1jRjK2naQwCBbA9HSpmlBMJTyQuVcjbw/a9GmRiuTsszuLcMpDPF1as3rIhK0xgmvcm/993aOgnf3xh3ZA1drRCh/Houk3lvY3zc+23Otnq+Unqz76orJc2EIfdYD1U5z1U1fyiXzvEo3DiQbQ5HINsMlOJmJ4HCUPVyObwq8vkpofjImDs3P3W40J/Ovb6ZFhSLw4NOT6pX0n5OBDYyS0q5fycLOD9Zv3J97PF7jRmlN3ln4NdlAUc/0BgXvpfeq+Mp/bW1vZnIxyBE5SFs+gQQyOmzI6dlBPKV4q2yzed0EZ89MaYvka2uX1ibyfzFxo0b58SkOR4sQ+79+Ur5GumF/pEETjj9aUx4HeeCYOHI/v5M5uLjGad4UZSFpkK1cqY8OuTrcUm1qzbLvGQ438mWnThIbQhHINsAkSLsIVCpVB46VK+tlb7YbeGm8cYrFDUZdP/vkQMH710+MLC4MT7qfaFc/lsn8DeKUP46Kj4cdsseym/LavTnjsZHdzkbMhfLpd+RY2r/e9RCU5hU5ivPmOd6O9euyVzdkJW3bSIw8RPSpoIpBgKzlcCePXuelrnJ19Rq/pvExgk9v6N2n7ZitPZkXybzymbakR8aKhSrlTUihl+JSe/Ko23fKEP4H/ad2hcOzZu6CsPlu2tKjuBzHNlYHqGrSi1yerxb12ayN2cT/GyYpmB1IBEC2QGoFGkHgdJw5ea6iI9YW42yWIsgyQ1/d8odOnGi15gtkAWhK+RA+zdESNnYxnKl9IVuT7BLynxRY+a493LnzyNS7m/JXYIfjkqjJUIE9BpP66HsqmzYHq42EUAg2wSSYuwkUC6X9y2prBgQLfynyB6aNEuGx/9DFlu2n9bfe0YzrSxUS18MAu9MEcldMWXOkzK39WezLT3mVsq9LlBOOJx+IsoOWTlf6S1w7pGtQHOj4glrnQAC2TozciSMwHZne22wXH5r4NQ3RzXt6GLLubW6t6PZ/Y2FocIDg5XyBpnSvFXKlA7eiVdYptLO78viza9F0FadGBv/LryrR3q9A3LaxVBjKilzbEtTuF+zMY730yOAQE6PG7kSSKBQHtoa+K7sb9S/iun5Kbkn++syPL692ebL3sbXyiPkwsMsIp8KKD3JU5x6XbYXpd/cbJlhrzc/VM0G2rlh7HQi6arK6y2yor5Jypggxs2WS7qJBBDIiUwI6WICxeHioCzgbJSDJD4jGCaIzViAdn5PNpYP9596alOLLbLKvdUfVf2SN3p7kXZOcl3v0yK8f93M9qKj7gnktJ8/Fdm9RPn++Z04+aeLPwbHm45AHkfBCwg8Q0BE8s2Bdi8J95BHXkqtVj1zBkXUwsMmprxKvy5VfOX0S2/y43Hbi6Q3+Ueyvei+gVOaH3Lvrha/s3to6GdTGkCCaRFAIKeFjUzdQKBYLX5XzUn1ikZGb7FxnLkiah8RkfyCzCNOuWdShsaHpTf5B4GvXy990wmHUxyd69zgzKs/OpDLvbobGM/2NiKQs91D2DejBGTBY3jpyhXn+dr5SNS85Jioaef1Ts0vrM9kcs0Ym6+W/jlIueEdMA9Fpg97rYHeKgtCsXfSROYjsO0EEMi2I6XApBHYvn17rVgpvVeO6rlM1p4nHFBxpL16pe+oYl9v9q3NtF/uuX5SFlVk25D6h7j0nutdKluBdgxkMufEpSG8swQQyM7ypfQEERgsFv9VVbznyMbIwbhmyd2LnxJB+25cfEN4IKvc73Qd/fK43qlsBTpTRPTnA+k0Q+4GeCbeIpAmKFNHYgjknfyIPNphncwhfiD+Hmn3Yun5VWXrTrjtZspLzq38N9nbmA2FMEoopQDZA+5tlbnOreHrKQskQdsIALttKCmomwjkq+UPyj3SL5I2P9nY7qObwHtliPxz6U2+XeKn/J7J7YQV6U0+V3YWfVzST1g7PzrX+Wq55/pRuZe7qUdFNNrF+9YJTOm41oskBwS6g4CI2g90ypON5c62qJ7f2GG8Mscoz7/ZtmrVxqYe+CZ39PyB1t4LpMynoyiKcq6Qe7l3y5Fs74uKJ6y9BBDI9vKktC4jUCgUHpXFlhfLqvPHpJc34W6ZsCso93m/YMmCA+X1udxZzeApVAs/ckYOZyXfvTHp58ox6NfLMH5rM9uLYsoguAkCCGQTkEgCgakIDFbLW+ThW+fKKnc9Oq1a4fvB9v5M7s+i408Mzf/nfz62eMWK8+Vwig9GzXUeHca/2qnV87KAc/qJuXnXLgIIZLtIUk7XE5Ah9w7V8+QKWeX+dtSQW7qSKc91PiQPCbt7w+rVK6YCNra9SJ71XQ/UJZJ2r9xyHXWtUsp7cCCTe0dUJGHPjgAC+ez4kRsCJxDI5/ful1Xul/qB3nJCxNE3gZwqIQL6slpPz+PZ1dnnRaVpDJM7er4jTz08WXLe1xgXvg/PQJf//6ScDBT5SNqoPIQ1RwCBbI4TqSDQEoHw8Ii6X79IpKsclVH2NzqplPPj/kzv9VHxjWFHnnpYPlvE8P1ye2Nj9Nh72Qt0oWwF2rFp06aeyAQEtkwAgWwZGRkg0ByB8vDw9+U2xXCVO26xRaTOe5+I2o+bPeRWHjl7faD986TMiXf0BE7+qcWLnx8OzZuzkFRTEUAgpyJEPASeBYFQrGSV+xwncN4edYpPWLT0Jp8n93IP53pzL22mqkK1ut2tzZHj0/S/hXOd4WNn5b/3n10tbXhkx44Jh2A0UyZpogkgkNFcCIVAWwnkh8qfcnRwmihZtXEBJ5xBlDnElXNS6v/JAs77f9dxvKkq371n9+PSm3y5zHXe4AfBpYOV0vV3xBzKO1VZxMcTQCDj2RADgbYS2F0u75Q9QOtloWZruDmy8RKhCxdwPviLTOZX2Wx2aWN81Pvw0NxipfKNqDjCnj0BBPLZM6QECDRNYOxMyGp5s/KD8E6Yw1EZZbi8LqWdPbIR/L9FxRNmjgACaY41NUHgOIHBocpfujrYKDt0Dh0PPPHFfJmb/GZfNn3jicG8M0kAgTRJm7ogMI7A7mq1mL+gfJIE3RazgKNSjrdFVrnv6evjgIpx6Iy9RCCNoaYiCEQQuMPxZZX7NTrwXyND6wm3KYYHXkgv83zPDypr07nwjhougwQQSIOwqQoCcQQGK5Xb5DkLZ8nazX2Nq9xhnrGVbqW/NZDJ3hxXBuHtJ4BAtp8pJUJgWgREJB+S487OdoIgclU6FElZ+76mL53ZObB69ZppVUKmlgggkC3hIjEEOk9gsFq5VDn6yshTfKR6CV/vpHp2yjmTb+i8Nd1dAwLZ3f6n9bOUgPQm76y7KiPmPRQ15JbwhZ7nfl6OT/t4s7cpztKmzmqzEMhZ7R6M62YC8uTDqizgnB4EwYcnbiuXGUvZWC49zXep0Xpx9YYNUx6f1s0sp9t2BHK65MgHAUMECtXKdYFWb5B9kZH3WWvlnDr/6cOPD2T6rjFkUtdUg0B2jatpqM0ECtXSF2uus0YHwVBkO8a6mMHN8pCwL3PcWSShaQUikNPCRiYImCcgtynuKwxdkJNTfD4cMy8pt3i7r3ry8SfuFaF8vnkLk1cjApk8n9KiRBO4w5dTfK7zdfAqeS7NSGNTxx4P6zi5QKkNjXG8b50AAtk6M3JAYMYJyAk+/zKqgz4x5JfHepNjf7W+N6Wc04vl8udm3MgEGIBAJsCJNKE7CQwNDe2RVe5z5W7Em4RATR49+4/5auWcnTIW704i7W81Atl+ppQIAaME8pXSO9za6Kny6Nm3Ga24CypDILvAyTQx+QR279nzePJbab6FCKR55tQIAQhYQgCBtMRRmAkBCJgngECaZ06NEICAJQQQSEschZkQgIB5AgikeebUCAEIWEIAgbTEUZgJAQiYJ4BAmmdOjRCAgCUEEEhLHIWZEICAeQIIpHnm1AgBCFhCAIG0xFGYCQEImCeAQJpnTo0QgIAlBBBISxyFmRCAgHkCCKR55tQIAQhYQgCBtMRRmAkBCJgngECaZ06NEICAJQQQSEschZkQgIB5AgikeebUCAEIWEIAgbTEUZgJAQiYJ4BAmmdOjRCAgCUEEEhLHIWZEICAeQIIpHnm1AgBCFhCAIG0xFGYCQEImCeAQJpnTo0QgIAlBBBISxyFmRCAgHkCCKR55tQIAQhYQgCBtMRRmAkBCJgngECaZ06NEICAJQQQSEschZkQgIB5AgikeebUCAEIWEIAgbTEUZgJAQiYJ4BAmmdOjRCAgCUEEEhLHIWZEICAeQIIpHnm1AgBCFhCAIG0xFGYCQEImCeAQJpnTo0QgIAlBBBISxyFmRCAgHkCCKR55tQIAQhYQgCBtMRRmAkBCJgngECaZ06NEICAJQQQSEschZkQgIB5AgikeebUCAEIWEIAgbTEUZgJAQiYJ4BAmmdOjRCAgCUEEEhLHIWZEICAeQIIpHnm1AgBCFhCAIG0xFGYCQEImCeAQJpnTo0QgIAlBBBISxyFmRCAgHkCCKR55tQIAQhYQgCBtMRRmAkBCJgngECaZ06NEICAJQQQSEschZkQgIB5AgikeebUCAEIWEIAgbTEUZgJAQiYJ4BAmmdOjRCAgCUEEEhLHIWZEICAeQIIpHnm1AgBCFhCAIG0xFGYCQEImCeAQJpnTo0QgIAlBBBISxyFmRCAgHkCCKR55tQIAQhYQgCBtMRRmAkBCJgngECaZ06NEICAJQQQSEschZkQgIB5AgikeebUCAEIWEIAgbTEUZgJAQiYJ4BAmmdOjRCAgCUEEEhLHIWZEICAeQIIpHnm1AgBCFhCAIG0xFGYCQEImCeAQJpnTo0QgIAlBBBISxyFmRCAgHkCCKR55tQIAQhYQgCBtMRRmAkBCJgngECaZ06NEICAJQQQSEschZkQgIB5AgikeebUCAEIWEIAgbTEUZgJAQiYJ4BAmmdOjRCAgCUEEEhLHIWZEICAeQIIpHnm1AgBCFhCAIG0xFGYCQEImCeAQJpnTo0QgIAlBBBISxyFmRCAgHkCCKR55tQIAQhYQgCBtMRRmAkBCJgngECaZ06NEICAJQQQSEschZkQgIB5AgikeebUCAEIWEIAgbTEUZgJAQiYJ4BAmmdOjRCAgCUEEEhLHIWZEICAeQIIpHnm1AgBCFhCAIG0xFGYCQEImCeAQJpnTo0QgIAlBBBISxyFmRCAgHkCCKR55tQIAQhYQgCBtMRRmAkBCJgngECaZ06NEICAJQQQSEschZkQgIB5AgikeebUCAEIWEIAgbTEUZgJAQiYJ4BAmmdOjRCAgCUEEEhLHIWZEICAeQIIpHnm1AgBCFhCAIG0xFGYCQEImCeAQJpnTo0QgIAlBBBISxyFmRCAgHkCCKR55tQIAQhYQgCBtMRRmAkBCJgngECaZ06NEICAJQQQSEschZkQgIB5AgikeebUCAEIWEIAgbTEUZgJAQiYJ4BAmmdOjRCAgCUEEEhLHIWZEICAeQIIpHnm1AgBCFhCAIG0xFGYCQEImCeAQJpnTo0QgIAlBBBISxyFmRCAgHkCCKR55tQIAQhYQgCBtMRRmAkBCJgngECaZ06NEICAJQQQSEschZkQgIB5AgikeebUCAEIWEIAgbTEUZgJAQiYJ4BAmmdOjRCAgCUEEEhLHIWZEICAeQIIpHnm1AgBCFhCAIG0xFGYCQEImCeAQJpnTo0QgIAlBBBISxyFmRCAgHkCCKR55tQIAQhYQgCBtMRRmAkBCJgngECaZ06NEICAJQQQSEschZkQgIB5AgikeebUCAEIWEIAgbTEUZgJAQiYJ4BAmmdOjRCAgCUEEEhLHIWZEICAeQIIpHnm1AgBCFhCAIG0xFGYCQEImCeAQJpnTo0QgIAlBBBISxyFmRCAgHkCKfNV2luj9pxX5DKZXvlVUfa2Asu7lYBWyne0s7Bb2z+ddiOQLVBTWr/FQxtbIEbS2URA6dlkjR22MMS2w09YCQEIzAABBHIGoFMlBCBgBwEE0g4/YSUEIDADBBDIGYBOlRCAgB0EWKRp9JNWrmKNupEK75NPwGMNZ6KTEcgGJsp1vj3qO78vf+sNUbyFQGIJaK1GayMjTyW2gdNsGALZAG5XqbRDgsJ/XBCAQJcTYA6yyz8ANB8CEIgngEDGsyEGAhDocgIIZJd/AGg+BCAQTwCBjGdDDAQg0OUEEMgu/wDQfAhAIJ4Aq9jxbIjpMIH1K9ef5C8aOVf23+UcrXsdx12ilH7YCdTDjuM/mK9WH+ywCRQPgUkJIJCT4iGyUwT6M9nbAn34d51wY74o45ET5EQqw93KcuyMcrx6X296xFXeG/PV0pc7ZQflQmAyAgyxJ6NDXNsJ9GWzbx3IZA/I7UpXyfmE4Q905GdQOzrluu5C2bB/h6T/yUA6fXrbjaFACExBIPLDOUUeoiEwLQJrs9l/kvM0PyWZF2rd3I1tR9NdIB3NByT/2dOqmEwQmCYBBHKa4MjWGgHpBX5EhtNvaVYYG0uXYbicV6x/2dfbd15jHO8h0CkCCGSnyFLucQJ9mczVMlx+twybj4dN74VyXDf45vTykgsCrRNAIFtnRo4WCKTT6WWuoz4ZBMGkuZQcoRQeoxT+neyS+FVrM5kvTZaGOAi0iwAC2S6SlBNJYI5Sr5SIZZGREih9yn3y57NKB68IdPBf69p5kwT+IE4owyG6rHFfPjAwsCauTMIh0C4CbPNpF0nKiSQgK9V/OMnDoh4LXHVmqVR6ZFzmH8vrm/t7s5fLCvZd48LHv5ynarXzJWB4fCCvIdBuAvQg202U8o4TyGazp6SUu/54wLgXMph2ejz3txvE8XiKwlD5K/Lmc2G6qCuQBZ+ocMIg0E4CCGQ7aVLWCQQ8rZ8fxGznkaH1zQ8Vi4MnZGh4k6+Ur4neJTm2rfx5Dcl5C4G2E0Ag246UAo8RkGWZvmOvG/8qp7nVaB3o+xrzhu9dVy2JCicMAu0kgEC2kyZlnUDAU2rhCQHj3gS+enrc29iX0gHdHxk5xWp3ZB4CIdAiAQSyRWAkb56AbNspxaWWmwzPiYsbH66VEy7GTLjqvu9PCCSgkwSiJ4M7WeMsKBuBnAVOSLAJu+K260ibt0zVbrlv+6qUUnOj0on47ooKJ6z9BGq1mhvurWp/ybO/RARy9vvIWgt3l0o/9QMd/XRIrZ4z0Jv+Wlzjli1btsTV+hOxizza+UJcXsLbS2BlsDLcTNCVWpHIRkuvZZJ72mTQxmWOgHbCwykiLnGR5142kMnd0dfb+1xJMPZZPFPuvOnPZjevWLxYhudqRUTGMMiXRZ5vxMQR3GYC9eX18DvTld+bRG4UF4E8GHffb6DUojZ/fihuEgI6pT6pfB3uWZw4VB77GdNXuq53pRxmMfbukCQcOw5yku+j+LZU4DDdSai3N0qme0NxTGRnaipSiWy0jOrC29ciL9cJTo6MILAjBIrF4m7ZqvONSeYij9V7rJcyaU8lvF9bDoq89Fgm/naewOjoqCe1JFIrpqKXyEbLlzHcQjLWIxkP4OhRW+eOD+N15wkUhiqvkrnEtiyq+Dq4dlep1JayOt/yZNQwX+v50pK4kZeWk5omfNeS0fKE/irIz13YgwxHaxMumW3Obtq0qWdCBAEdJZAK/ItleuOpSbuHk1gQPpghcNRNhUrl7ydJRlQnCOjUSil2QUzRO8rlcuyILSaPNcGJ7EEe0jp02OEYL6zat29f7OkyMXkIfpYEdg0N7SmWS4tl4/dPWy5KqZrMg32oWCm9o+W8ZHjWBHxXb44qJJw2kfng70XFJSUskQJZrVZ/Iz2VR2OctFjX65xKHQOn08FLVq240HfVS8U/B6eal3TlOB+ZKbmn7uh1xWr1zzttG+VHExARvDYqJvRf4LpfjIpLSth0Rzyzvv39mdz7ZFR2fdQR/+LwB2Soduasb0SyDXTl4NvNWqvLZdk6J7M9S+XRr/Nl8fpJ6ZfslX3JP/Pd+u2l0nDrPc5kczPauoF07srwwWnR3yPnN4VKeblRgwxXlliBFI49a7O50SjHjvVctLp0sFJkL53hD1xEdeFnMOwqqouci5xtzrZwwj/8N/kR5JKAq+MEPNl+9UOp5flRNcmO4o8VyuUtUXFJCQs/mEm9aiKOd0c1LhRN+e+vo+IIM04gFMPwvuq6iGN41034GnEUCDN9rc3lLhYbIsVRwrWqxx5oPNOmt63+JAukuDC4KXRkFC2ZPjlDhuHvjIojDALdTqCvr2+JE+hvxXGQTsa+/HD5+3HxSQlPtEDmq9V/lXmtJ6OcFfYiRSQ/MZDtfVlUPGEQ6GYCyvfvjOxZCJRwikq2XV3RDXwSLZDiQC2PyrsidrU0HGoH3ldyuVymG5xNGyHQDAG5F/422UHwkri00rn4j3w5+b3HsP1JF0hHHLktCPyvxjlbfgzneUHwwMDqLEf4x0EivGsIiDjeJffCXxWOsKKu8FZPObriPVFxSQxLvECOOa3e8y75G7dxXKLUIjnA9cf96TQPgkrip5w2TUmgb03fWtnSc788w/zyuMThmWc1HfyV3DlzT1yapIUneZvPCb6SSeczXT/YcUJgxBvZg1euu+5F8rS9SkQ0QRBIHIFsOntDSjnXScMm7zAF+p41Q5ULt8mOg8RBiGlQ1whk2H45oXqL56gb44YPxxiN3SGg9V1yjPItNaW+Kb+Yk/Q+j+XiLwTsIdDf33uGU09dIYuYb5MHoP2Xqb4TMsrKB546T05nilz0tKflrVnaVQIZounP5a5Vgf5ws5jGFngCHd7NcadW+oe+6+6RI+gfnTdvHnv1moVIuhkjMHfuXD3yxMgSf76/vEfrs2Vm8WIRw6vDaaXmjdKPp+r1DTsffviJ5vMkI2XXCWTotrXZ7P/Syv1HJ2he48avhHcltGR83ru2FeOXXKbuLT6DSdZk7tOp2qX5/MPDz4R2z6uu/a73ZTIvlwnpW8XVS7vH3bQUAi0Q0MGP8qtWvdjZvr3WQq5EJe1agQy9KPsfT/YCvVV6hy9q5Vc1UZ8AGgOBRgLSbXQC/3Vyo8UtjVHd9l7Olu3eS86FPLj3yX2fX7l42a8D5Zwle7zoTXbvx6GrWx5u4ZFrRBZt7n66NnpOZXh4e1cDOdr4ru5Bjv8AbNy4cc7hgwcvlrDbZei9hB7leDq8TjKB8LR2Pwhuk2cnvEe2t4XnqI6fskxy06dsGwIZgWhduu/CQOnfk89JeLDuObINYm7MjQURuQmCwOwlEH7hQ/WTDkBFXv9CHmPx7/MWLfj8gw8+eGD2Wj1zliGQTbAfm6t0nBeqINggB7wulwNET5EP2eSbapsolyQQMEBAjv1W+xxX71WBs0d56ie7S6WfS73Nb+EwYCRVQAACEIAABCAAAQhAAAIQgAAEIAABCEAAAhCAAAQgAAEIQAACEIAABCAAAQhAAAIQgAAEIAABCEAAAhCAAAQgAAEIQAACEIAABCAAAQhAAAIQgAAEIAABCEAAAhCAAAQgAAEIQAACEIAABCAAAQhAAAIQgAAEIAABCEAAAhCAAAQgAAEIQAACEIAABCAAAQhAAAIQgAAEIAABCEAAAhCAAAQgAAEIQAACEIAABCAAAQhAAAIQgAAEIAABCHQ9gf8Pdj84D4FVPMgAAAAASUVORK5CYII=;" vertex="1" parent="1">
          <mxGeometry x="179" y="220" width="118" height="118" as="geometry" />
        </mxCell>
        <mxCell id="wyVvy1AHNclSI-G4XtT5-5" value="" style="shape=image;verticalLabelPosition=bottom;labelBackgroundColor=default;verticalAlign=top;aspect=fixed;imageAspect=0;image=data:image/png,iVBORw0KGgoAAAANSUhEUgAAAFoAAABaCAYAAAA4qEECAAAAAXNSR0IArs4c6QAAAIRlWElmTU0AKgAAAAgABQESAAMAAAABAAEAAAEaAAUAAAABAAAASgEbAAUAAAABAAAAUgEoAAMAAAABAAIAAIdpAAQAAAABAAAAWgAAAAAAAACQAAAAAQAAAJAAAAABAAOgAQADAAAAAQABAACgAgAEAAAAAQAAAFqgAwAEAAAAAQAAAFoAAAAAW0RqIgAAAAlwSFlzAAAWJQAAFiUBSVIk8AAAAuNJREFUeAHt3TFqFVEYxfEoihILC9FSCwOCIroNQXfgGgR3YGGRhdhau400ioIIglgpFqKICno+ySMWA8M53LlzB/4XbjKZ+c7cb3555L00M3t7DAQQQMAWOGUnvMA1ld/UXHodr6vp6j/a/Urz/fThcffeU2s/NesCtjKr3+q7+TjT/IwnJ3yozbOazzQ/n+weduuSOquea74YtsuJxp5rX72Sb08cG3FX9Vn9Vt/Nx+nmZ+SEkwJL/umYXDDYWS+GQ82rM9nXOv5kpma1w1uAviidR5rnZpS+6vhTzd8zdasc3gL0F8kcaF6ZEfqo40MiV99bgK4+PxzP2t7k6A1dH/dGG796NNQTel8X9K3HRZlrXFD9dzNjl/eE3jX3Qxvvdj+s+P261p57g23W3hrQb9T93WZXkJ/oSNE7edxL8g+L5xVXAx3TeUGgPa+4GuiYzgsC7XnF1UDHdF4QaM8rrgY6pvOCQHtecTXQMZ0XBNrziquBjum8INCeV1wNdEznBYH2vOJqoGM6Lwi05xVXAx3TeUGgPa+4GuiYzgsC7XnF1UDHdF4QaM8rrgY6pvOCQHtecTXQMZ0XBNrziquBjum8INCeV1wNdEznBYH2vOJqoGM6Lwi05xVXAx3TeUGgPa+4GuiYzgsC7XnF1UDHdF4QaM8rrgY6pvOCQHtecTXQMZ0XBNrziquBjum8INCeV1wNdEznBYH2vOJqoGM6Lwi05xVXAx3TeUGgPa+4GuiYzgsC7XnF1UDHdF4QaM8rrgY6pvOCQHtecTXQMZ0XXOOWmTfUYt2ucu1RfXQba0Cf19V1uydoN8mZhXpC162D6xbCo43Fb2lcF9wTutbrclG10GiDN8NOvxGgge4k0GkZXtFAdxLotMySnzrqoQk1Hmt++rc19pfLx+3t+h672/+6e6DtetLPVp5lWH1Wv/c1m4+ln5x5oI5vaS69TguYgn6p+bbFyTgHAggggMB2BP4Cn0iBGBkOO6YAAAAASUVORK5CYII=;" vertex="1" parent="1">
          <mxGeometry x="119" y="240" width="90" height="90" as="geometry" />
        </mxCell>
        <mxCell id="wyVvy1AHNclSI-G4XtT5-6" value="" style="shape=image;verticalLabelPosition=bottom;labelBackgroundColor=default;verticalAlign=top;aspect=fixed;imageAspect=0;image=data:image/png,iVBORw0KGgoAAAANSUhEUgAAAJAAAACQCAYAAADnRuK4AAAAAXNSR0IArs4c6QAAAIRlWElmTU0AKgAAAAgABQESAAMAAAABAAEAAAEaAAUAAAABAAAASgEbAAUAAAABAAAAUgEoAAMAAAABAAIAAIdpAAQAAAABAAAAWgAAAAAAAACQAAAAAQAAAJAAAAABAAOgAQADAAAAAQABAACgAgAEAAAAAQAAAJCgAwAEAAAAAQAAAJAAAAAALQfrHQAAAAlwSFlzAAAWJQAAFiUBSVIk8AAABQhJREFUeAHtnT2L1FAUhtdvCy2sbCwEsVEsFMHCQhZ/gR+44I/wF4jM+k9sREREwVJcQRBBwULEVtEVrCwsVNhV3yO5u7PZSWbInDuZ5DwHDjfJTc495znvJJlVmIUFDAIQgAAEIAABCEAAAhCAAAQgAAEIQAACEIAABCAAAQhAAAIQgAAEIAABCEAAAhCAAAQgAAEIQAACEIAABCAAAQhAAAIQgAAEIAABCEAAAhCAAAQgAAEIQAACEIAABDIQ2JEhZjnkPh1YlJ+UHyxPsp+FwA9FfS9fkf/OssKMgi5pna/yv3grDFbF/Zq8k3ZDWSOc+WBgvchiuR5hp5TtW/muIusvGh/Kvxf7DHkJHFL4y/IjxTLrGk/L3xX7cz/cUYbp7vNC2wfmPuP+JWjMjX3qg/WkM2Z3nJT4mc5k3b9EjX3qw+culbc2lHh6jHUp/77kauyTgKwn7pbrHciSTpZrjRSfsZ5A1l7srF87y+xAUdOngtGXhbGdqbUhoJkWyGJ5CSCgvHx7H71tAS2LsL0j4c0ZGMPWrG0BtVY4C/sQQEA+HMNGQUBhW+9TOALy4Rg2CgIK23qfwhGQD8ewURBQ2Nb7FI6AfDiGjYKAwrbep3AE5MMxbBQEFLb1PoUjIB+OYaMgoLCt9ykcAflwDBsFAYVtvU/hCMiHY9goCChs630KR0A+HMNGQUBhW+9TOALy4Rg2CgIK23qfwhGQD8ewURBQ2Nb7FI6AfDiGjYKAwrbep3AE5MMxbBQEFLb1PoUjIB+OYaMgoLCt9ykcAflwDBsFAYVtvU/hCMiHY9goCChs630KR0A+HMNGQUBhW+9TOALy4Rg2CgIK23qfwhGQD8ewURBQ2Nb7FI6AfDiGjYKAwrbep3AE5MMxbBQEFLb1PoUjIB+OYaMgoLCt9ykcAflwDBtld9jKu124/TxWsuHtdGxmY9sCuqVKbzaodlpobV/foOT5vKRtAVkj+VXn+dTGRFm1LaCJkuSk/wSGf325Cskk51Rd2+j4tLfyqkWHCymvYftNXt6HY1atW3e87evrcss5N1x3uRdTr+sesMgoa9JTVx0rQNZeNLkTxMJPtbUEEFAtHibHEUBA4wgxX0sAAdXiYXIcgVxf4/eOW5j5mRGgFzNDzUIQgAAEINAhAuU/JN7uUO5eqa4okHkTW9RF5tHM/hF8pNlfLaP5YCSJyQ7atdF4Wb0bxtf4DRRsNCFQ/hq/riDpv1fY42ytSdAOXHNBOV4s8rRHUNMPksVJ9kwbz9NOz0bTSXpsmUYqbVUz6ZZ8rPKs7k9cHaoz1TvteKX7WCorMC0kPqaRSnusmXTioPKs7k/YXfaJPNU67Wixyl9Iuk9ps4KBNhOjR5uHtxe9pMl7xQm/NNpt/mWx37fBGn5JfkLetPl/dO0HuX3wam/tmu+qnVfiT+X7iwJMI/eL7W2DgXwtT2r7qe1l+XH5Hrm9K+D9Z2C9tp5b700DSQ+mjS0fti07mjQ7Kn8lPyzHIJAIfNPGOfmndMDGUd8+Puq4nWhqwyBgBEwL28RjE6PuQHbczObs28p1+Vm53ZHs5RPrPwF7n7M7zhv5XfkDuT3GMAhAAAIQgAAEIAABCEAAAhCAAAQgAAEIQAACEIAABCAAAQhAAAIQgAAEIAABCEAAAhCAAAQgAAEIQAACEIAABCAAAQhAAAIQgAAEIAABCEAAAhCAAAQgAAEIQGBiAv8AoJocNtWSqeAAAAAASUVORK5CYII=;" vertex="1" parent="1">
          <mxGeometry x="280" y="176.5" width="193" height="193" as="geometry" />
        </mxCell>
        <mxCell id="wyVvy1AHNclSI-G4XtT5-8" value="" style="endArrow=none;dashed=1;html=1;rounded=0;exitX=0;exitY=1;exitDx=0;exitDy=0;entryX=0.987;entryY=0.869;entryDx=0;entryDy=0;entryPerimeter=0;strokeWidth=2;dashPattern=8 8;strokeColor=#FFFFFF;" edge="1" parent="1" source="wyVvy1AHNclSI-G4XtT5-5" target="wyVvy1AHNclSI-G4XtT5-2">
          <mxGeometry width="50" height="50" relative="1" as="geometry">
            <mxPoint x="390" y="390" as="sourcePoint" />
            <mxPoint x="440" y="340" as="targetPoint" />
          </mxGeometry>
        </mxCell>
      </root>
    </mxGraphModel>
  </diagram>
</mxfile>
